<?xml version="1.0" standalone="no"?>
<svg xmlns:xlink="http://www.w3.org/1999/xlink" id="wave" style="transform:rotate(0deg); transition: 0.3s" viewBox="0 0 1440 400" version="1.1" xmlns="http://www.w3.org/2000/svg"><defs><linearGradient id="sw-gradient-0" x1="0" x2="0" y1="1" y2="0"><stop stop-color="rgba(12, 170, 241, 1)" offset="0%"/><stop stop-color="rgba(13, 169, 241, 1)" offset="100%"/></linearGradient></defs><path style="transform:translate(0, 0px); opacity:1" fill="url(#sw-gradient-0)" d="M0,280L48,233.3C96,187,192,93,288,46.7C384,0,480,0,576,60C672,120,768,240,864,260C960,280,1056,200,1152,200C1248,200,1344,280,1440,260C1536,240,1632,120,1728,66.7C1824,13,1920,27,2016,53.3C2112,80,2208,120,2304,113.3C2400,107,2496,53,2592,86.7C2688,120,2784,240,2880,260C2976,280,3072,200,3168,140C3264,80,3360,40,3456,73.3C3552,107,3648,213,3744,273.3C3840,333,3936,347,4032,326.7C4128,307,4224,253,4320,226.7C4416,200,4512,200,4608,166.7C4704,133,4800,67,4896,66.7C4992,67,5088,133,5184,173.3C5280,213,5376,227,5472,220C5568,213,5664,187,5760,153.3C5856,120,5952,80,6048,93.3C6144,107,6240,173,6336,180C6432,187,6528,133,6624,100C6720,67,6816,53,6864,46.7L6912,40L6912,400L6864,400C6816,400,6720,400,6624,400C6528,400,6432,400,6336,400C6240,400,6144,400,6048,400C5952,400,5856,400,5760,400C5664,400,5568,400,5472,400C5376,400,5280,400,5184,400C5088,400,4992,400,4896,400C4800,400,4704,400,4608,400C4512,400,4416,400,4320,400C4224,400,4128,400,4032,400C3936,400,3840,400,3744,400C3648,400,3552,400,3456,400C3360,400,3264,400,3168,400C3072,400,2976,400,2880,400C2784,400,2688,400,2592,400C2496,400,2400,400,2304,400C2208,400,2112,400,2016,400C1920,400,1824,400,1728,400C1632,400,1536,400,1440,400C1344,400,1248,400,1152,400C1056,400,960,400,864,400C768,400,672,400,576,400C480,400,384,400,288,400C192,400,96,400,48,400L0,400Z"/></svg>