<?xml version="1.0" standalone="no"?>
<svg xmlns:xlink="http://www.w3.org/1999/xlink" id="wave" style="transform:rotate(0deg); transition: 0.3s" viewBox="0 0 1440 400" version="1.1" xmlns="http://www.w3.org/2000/svg"><defs><linearGradient id="sw-gradient-0" x1="0" x2="0" y1="1" y2="0"><stop stop-color="rgba(13, 169, 241, 1)" offset="0%"/><stop stop-color="rgba(13, 169, 241, 1)" offset="100%"/></linearGradient></defs><path style="transform:translate(0, 0px); opacity:1" fill="url(#sw-gradient-0)" d="M0,0L40,40C80,80,160,160,240,220C320,280,400,320,480,293.3C560,267,640,173,720,140C800,107,880,133,960,166.7C1040,200,1120,240,1200,233.3C1280,227,1360,173,1440,186.7C1520,200,1600,280,1680,306.7C1760,333,1840,307,1920,260C2000,213,2080,147,2160,106.7C2240,67,2320,53,2400,93.3C2480,133,2560,227,2640,240C2720,253,2800,187,2880,166.7C2960,147,3040,173,3120,213.3C3200,253,3280,307,3360,280C3440,253,3520,147,3600,100C3680,53,3760,67,3840,100C3920,133,4000,187,4080,200C4160,213,4240,187,4320,180C4400,173,4480,187,4560,206.7C4640,227,4720,253,4800,220C4880,187,4960,93,5040,100C5120,107,5200,213,5280,220C5360,227,5440,133,5520,86.7C5600,40,5680,40,5720,40L5760,40L5760,400L5720,400C5680,400,5600,400,5520,400C5440,400,5360,400,5280,400C5200,400,5120,400,5040,400C4960,400,4880,400,4800,400C4720,400,4640,400,4560,400C4480,400,4400,400,4320,400C4240,400,4160,400,4080,400C4000,400,3920,400,3840,400C3760,400,3680,400,3600,400C3520,400,3440,400,3360,400C3280,400,3200,400,3120,400C3040,400,2960,400,2880,400C2800,400,2720,400,2640,400C2560,400,2480,400,2400,400C2320,400,2240,400,2160,400C2080,400,2000,400,1920,400C1840,400,1760,400,1680,400C1600,400,1520,400,1440,400C1360,400,1280,400,1200,400C1120,400,1040,400,960,400C880,400,800,400,720,400C640,400,560,400,480,400C400,400,320,400,240,400C160,400,80,400,40,400L0,400Z"/></svg>